<svg width="110" height="54" viewBox="0 0 110 54" fill="none" xmlns="http://www.w3.org/2000/svg">
<path d="M0 50.2734C1.34466 42.2559 5.15634 33.3871 9.73555 26.6757C14.3148 19.9643 20.2722 14.3479 27.1916 10.219L31.3352 17.4708C25.4538 20.9804 20.3899 25.7544 16.4976 31.4591C12.6053 37.1637 9.73555 43.5451 9.01474 50.3339L0 50.2734Z" fill="#26B623"/>
<path d="M109.999 50.2736C108.998 41.6112 105.118 32.8741 100.362 26.2217C95.6064 19.5693 89.5016 14.0547 82.4744 10.0631L78.5237 17.475C84.4968 20.8678 89.6859 25.5554 93.7285 31.2099C97.771 36.8644 101.261 42.9007 101.905 50.2736L109.999 50.2736Z" fill="#FD2828"/>
<path d="M29.1069 9.20864C37.0151 4.98738 45.8359 2.76476 54.8001 2.73457C63.7643 2.70438 72.5999 4.86754 80.5363 9.03544L76.7037 16.3336C69.9577 12.7908 62.4475 10.9522 54.8279 10.9778C47.2083 11.0035 39.7106 12.8927 32.9886 16.4808L29.1069 9.20864Z" fill="#FBFF24"/>
</svg>
