<svg width="110" height="65" viewBox="0 0 110 65" fill="none" xmlns="http://www.w3.org/2000/svg">
<path d="M106.606 63.5612C106.597 55.6948 104.567 47.9249 100.659 40.7947C96.7506 33.6644 91.0581 27.3458 83.979 22.2805L77.8414 28.4805C83.8586 32.7861 88.6973 38.1569 92.0193 44.2176C95.3413 50.2783 97.0664 56.8827 97.0741 63.5692L106.606 63.5612Z" fill="#FD2828"/>
<path d="M3.39824 63.5612C3.40732 55.6948 5.43689 47.9249 9.34509 40.7947C13.2533 33.6644 18.9459 27.3458 26.0249 22.2805L32.1625 28.4805C26.1453 32.7861 21.3066 38.1569 17.9846 44.2176C14.6626 50.2783 12.9375 56.8827 12.9298 63.5692L3.39824 63.5612Z" fill="#26B623"/>
<path d="M27.0026 21.47C34.5024 16.8974 42.2524 12.9421 54.8149 12.9382C68.2524 12.9341 76.9961 17.0914 83.0038 21.4737L77.0002 27.8763C70.4926 24.4015 63.9458 22 55 22C46.0542 22 39.5033 24.2111 33.0035 27.869L27.0026 21.47Z" fill="#FBFF24"/>
</svg>
