<svg width="110" height="61" viewBox="0 0 110 61" fill="none" xmlns="http://www.w3.org/2000/svg">
<path d="M7.1006 57.4645C7.22281 47.0897 10.8026 37.0521 17.2732 28.9414L22.7394 33.3023C17.2394 40.1964 14.1966 48.7282 14.0927 57.5468L7.1006 57.4645Z" fill="#26B523"/>
<path d="M18.4041 27.5707C22.8358 22.4292 28.3369 18.3175 34.5228 15.523C40.7088 12.7285 47.4304 11.3186 54.2179 11.3919L54.1424 18.3841C48.373 18.3218 42.6597 19.5202 37.4016 21.8955C32.1436 24.2708 27.4677 27.7658 23.7007 32.1361L18.4041 27.5707Z" fill="#FBFF24"/>
<path d="M102.899 57.4645C102.777 47.0897 99.1974 37.0521 92.7268 28.9414L87.2606 33.3023C92.7606 40.1964 95.8034 48.7282 95.9073 57.5468L102.899 57.4645Z" fill="#FD2828"/>
<path d="M91.5919 27.5707C87.1603 22.4292 81.6592 18.3175 75.4733 15.523C69.2873 12.7285 62.5657 11.3186 55.7782 11.3919L55.8537 18.3841C61.6231 18.3218 67.3364 19.5202 72.5945 21.8955C77.8525 24.2708 82.5284 27.7658 86.2954 32.1361L91.5919 27.5707Z" fill="#FFCD1D"/>
</svg>
